<?xml version="1.0" encoding="UTF-8"?><svg id="Layer_1" xmlns="http://www.w3.org/2000/svg" viewBox="0 0 6436.91 6699.47"><defs><style>.cls-1{fill:#03933f;}.cls-1,.cls-2,.cls-3,.cls-4,.cls-5,.cls-6,.cls-7{fill-rule:evenodd;}.cls-2,.cls-4{fill:#fff;}.cls-3{fill:#010202;}.cls-4{stroke:#808284;stroke-miterlimit:10;stroke-width:6.5px;}.cls-5{fill:#da271d;}.cls-6{fill:#000100;}.cls-7{fill:#30348b;}</style></defs><path class="cls-4" d="M1003.7,4810.87c409.05,634.65,975.89,984.11,1663.13,1117.34,411.38,79.48,710.59,78.27,1122.01-3.5,679.02-135.57,1237.69-485.07,1644.41-1113.84,47.91-72.48,52.58-108.67,75.98-108.67,15.18,0,38.57,14.01,84.15,42.08,143.74,86.49,293.32,163.63,431.27,260.63,105.17,74.77,123.85,51.42,38.57,182.32-496.74,758.5-1154.75,1222.51-1977.55,1411.84-560.97,128.56-1164.05,129.73-1725.06,2.34-827.48-188.16-1487.82-652.17-1988.06-1414.17-85.32-130.9-66.6-107.55,39.74-182.32,136.74-97,287.53-174.14,431.27-260.63,45.58-28.07,67.81-42.08,82.99-42.08,23.37,0,29.23,36.2,77.15,108.67h0ZM6427.87,4064.04c-116.89,306.21-282.82,618.26-472.18,882.4-128.56-75.98-255.96-151.92-381.02-224.39-50.25-29.23-81.82-49.08-133.2-26.9l-198.71,84.15v1.21c7.01-17.55,36.24-40.91,78.32-97.04,212.68-286.32,425.44-732.82,482.69-1140.7,45.58,254.79,125.06,548.16,128.57,798.29,86.49-25.73,282.82-46.79,495.54-277.02h0ZM9.09,4064.04c116.89,306.21,281.67,618.26,471.02,882.4,128.56-75.98,255.94-151.92,381-224.39,50.27-29.23,81.8-49.08,133.24-26.9l198.69,84.15,1.17,1.21c-8.17-17.55-37.41-40.91-78.31-97.04-213.87-286.32-426.58-732.82-483.86-1140.7-45.58,254.79-123.87,548.16-128.56,798.29-85.32-25.73-282.82-46.79-494.37-277.02h0Z"/><path class="cls-6" d="M5480,4692.81c-7,0-14.01,1.21-22.19,3.54-63.13,22.19-141.41,66.6-216.22,93.5,1.17,7,7.01,12.84,17.51,22.19,12.85,8.17,31.57,19.89,58.42,36.24,19.89,11.68,36.24,22.19,56.13,33.9,11.68-14.05,22.23-32.73,36.24-51.42,28.03-38.57,53.75-87.66,79.48-121.56,3.46-4.67,8.17-7.01,16.35-9.34,1.17,0,3.5-1.17,5.84-1.17,1.17,0-3.5-1.21-9.34-3.54-7.01-1.12-15.18-2.34-22.23-2.34h0ZM956.96,4692.81c5.84,0,14.01,1.21,21.02,3.54,63.12,22.19,141.43,66.6,216.22,93.5-1.17,7-7.01,12.84-17.52,22.19-11.7,8.17-30.4,19.89-57.28,36.24-19.87,11.68-37.41,22.19-57.28,33.9-11.68-14.05-22.21-32.73-36.24-51.42-28.04-38.57-52.59-87.66-78.29-121.56-3.5-4.67-9.36-7.01-16.37-9.34-2.33,0-4.67-1.17-7.01-1.17,0,0,4.67-1.21,9.34-3.54,8.17-1.12,15.2-2.34,23.39-2.34h0Z"/><path class="cls-7" d="M1176.68,4812.04c16.35-12.85,22.19-19.85,17.52-30.4,3.5,8.21-4.67,18.72-17.52,30.4h0Z"/><path class="cls-2" d="M1228.1,724.9v3223.42c0,79.48,78.31,261.8,109.86,330.77,80.63,177.65,245.43,404.38,383.34,518.93,302.71,251.29,462.84,335.44,855.54,499.04,161.28,67.81,310.88,114.55,483.86,190.53,68.95,30.4,94.66,60.76,137.91,91.16,156.59-112.22,335.44-156.63,528.27-230.27,281.65-106.34,524.77-208.01,765.55-375.15,105.17-72.48,119.18-86.49,211.55-168.31,195.16-177.65,363.47-414.92,448.79-691.9,33.9-109.84,19.85-243.08,18.68-363.47l-10.51-2661.25c-1.17-109.84,8.17-277.02-1.17-379.85-3.5-30.36-18.68-36.24-39.74-52.59l-485.03-370.52c-35.07-26.86-73.64-57.26-108.67-81.78-105.21-70.14-40.91-53.75-294.54-14.05-673.22,106.38-1428.23,118.06-2086.23-29.19-136.74-30.4-92.33-35.07-257.13,78.31l-613.59,432.44c-19.87,15.18-46.75,24.52-46.75,53.71h0Z"/><path class="cls-1" d="M2257.76,2421.97l-382.17,1429.35,1151.2,7.01c36.24-72.44,94.66-100.5,189.34-101.67,44.43,0,88.8,9.34,123.88,26.9,52.63,26.86,52.63,58.43,80.65,67.77l1140.7-7-382.19-1425.89c-137.91-37.37-323.73-67.76-473.31-78.27-130.9-9.34-255.96-5.88-383.36,24.52-26.9,5.84-89.99,29.23-108.69,31.57-16.37,1.17-177.67-39.74-223.25-45.58-87.65-10.51-171.81-15.18-261.8-10.51-179.98,9.34-308.55,49.08-470.99,81.82h0Z"/><path class="cls-1" d="M3926.75,1888.99c18.68,12.84,39.74,22.23,57.26,31.57,17.51,10.51,36.24,19.85,51.42,28.07,150.79,81.82,342.45,236.07,439.45,368.14l72.48,93.49c18.68,25.73,43.24,64.3,60.76,95.87,315.55,565.64,216.22,1228.31-231.4,1667.76-608.92,594.91-1616.38,635.82-2267.38,61.96-129.73-114.55-97-93.49-195.18-205.71-89.99-101.67-184.65-294.49-225.56-418.39-180-545.83,17.54-1123.18,417.24-1472.64l232.57-168.31c25.73-15.18,56.11-31.53,97.02-53.75-25.71,10.51-45.58,19.85-67.79,29.23l-63.11,30.36c-43.24,19.89-88.82,46.75-126.21,70.14-82.99,52.58-158.96,104-223.25,161.3-133.24,121.52-79.46,73.6-192.85,192.83-327.23,348.29-499.04,952.54-334.26,1471.47,114.53,362.3,347.12,686.03,654.5,891.74,319.08,215.05,698.91,362.34,1187.46,350.62,791.24-18.68,1574.3-521.27,1760.12-1324.18,126.23-551.67-40.91-1048.37-404.38-1443.41-125.06-134.4-266.51-245.45-432.44-337.78-79.48-43.24-196.37-102.84-266.47-120.39h0Z"/><path class="cls-6" d="M2787.2,1242.7l57.28,37.37-53.75,68.97c-25.73-11.72-16.39-4.67-36.24-25.73-15.2-16.35-14.03-15.18-24.56-37.37l57.28-43.24ZM1868.57,1752.25l22.21,51.42,68.97-29.19-22.23-51.42-68.95,29.19ZM3363.41,1193.58l73.6,4.67v-60.76h-73.6v56.09ZM3475.59,1194.75l73.64,2.38v-59.63l-73.64-1.17v58.42ZM1470.03,1511.51l25.71,54.92,66.62-30.4-25.71-53.75-66.62,29.23ZM1971.42,1709l14.01,56.09,73.64-17.51-16.37-58.42-71.29,19.85ZM2163.08,1651.75l17.55,57.26,72.46-22.19-18.7-57.3-71.31,22.23ZM1582.23,1457.71l23.37,53.79c33.88-9.34,44.41-16.39,68.95-36.24l-25.71-47.92-66.62,30.36ZM4024.92,1749.91c102.84-24.52,82.99-28.07,121.56-111.01,21.02-44.45,54.92-114.55,68.93-162.47-42.08,16.35-38.57,21.02-56.09,58.42-11.68,24.56-25.73,54.92-39.74,77.15-16.35,24.56-31.57,43.24-46.75,64.26-17.52,24.56-35.07,42.08-47.92,73.64h0ZM4654.86,1879.65l32.74,21.06c30.4-30.4,239.61-504.92,278.19-585.57l-26.9-15.18-284.03,579.69ZM3168.21,1498.62h42.08c12.84-37.36,14.05-620.6,10.51-700.08l-33.86-1.17c-18.72,30.4-17.56,619.43-18.72,701.25h0ZM4578.92,1712.51l-56.13-25.69c18.73-39.74,46.79-67.8,107.55-65.47l-51.42,91.16ZM4484.21,1661.09l-134.4-53.75c9.34-37.4,44.45-87.66,35.07-120.39-17.51-5.84-22.18-15.18-38.57,15.22-10.51,19.85-16.35,51.38-36.2,79.44l-54.96-7.01-40.91,101.67c29.23,19.89,151.96,60.8,191.7,77.15l178.82,87.66,298-566.85-38.53-11.68c-28.06,17.52-126.23,208.05-141.45,234.9-56.09,100.54-16.35,42.08-108.67,78.31-61.97,24.56-79.48,43.25-109.88,85.32h0ZM1676.89,1583.94c19.89,17.56,31.57,39.74,44.41,68.97-19.85,21.02-46.75,32.69-73.62,45.58-12.86-22.22-31.55-49.08-39.74-78.31l68.95-36.24ZM2171.28,1346.7l25.71,134.4-114.53,36.24c-16.37-33.9-29.21-108.72-50.27-135.57l-47.91,14.01,32.73,141.41-238.43,92.32c-8.19-26.85-50.27-107.51-68.95-123.89l-195.18,90.03,134.4,237.24,141.43-75.98c130.9-64.26,357.63-144.91,496.7-170.64l-53.75-246.58-61.95,7.01ZM3420.67,1290.62c23.39-7.01,66.64-1.21,86.49,9.34,10.51,10.51,3.5,65.43,3.5,79.48l-93.5-4.67,3.5-84.15ZM3340.02,1507.96c127.4,5.88,250.12,23.39,375.18,42.12,122.73,18.68,233.74,63.09,343.62,81.82,19.85-37.45,50.25-201.04,53.75-252.46l-59.59-11.72-17.56,125.06-67.77-15.18,15.18-140.28-50.25-9.34c-15.22,31.57-17.56,91.16-21.06,132.07l-49.08-7.01c-12.84-33.9,3.5-97,7.01-146.08l-61.93-14.01-15.18,143.74-230.27-42.08,9.34-141.41-220.89-19.89-10.51,274.65ZM3037.31,1370.1l-198.66,2.33c19.85-46.79,60.76-74.81,82.99-119.22-26.9-29.23-113.39-85.32-148.46-107.55-40.91,42.08-81.8,86.49-121.54,130.9,12.86,28.06,43.24,51.42,65.45,77.15,18.7,21.06,18.7,7.01,14.01,26.86l-271.14,37.45c-7.01-37.45-10.51-100.54-31.55-121.56l-43.24,25.69c16.37,180.02,32.71,58.42,31.55,358.8,74.81-24.52,58.44-50.25,61.95-129.73,238.43-36.2,295.68-52.59,535.3-56.09h39.74c9.34-1.17,12.84-1.17,21.02-3.5,25.73-7.01-1.17,7,15.2-8.17,4.69-9.34,19.87-606.59,15.2-656.84-2.34-17.56,7-38.58-26.9-32.73-25.69,4.67-21.02,17.51-23.35,89.99l-17.56,486.24Z"/><path class="cls-5" d="M3218.46,5764.57c-351.77-262.97-772.52-331.94-1173.41-532.94-405.56-204.54-653.31-465.18-795.91-783.07-130.9-288.7-175.33-625.31-175.33-1012.13l7.03-2798.03L1882.6,13.14c25.71-17.51,39.74-14.01,66.62-9.34,961.88,170.64,1575.49,170.64,2537.33,0,26.9-4.67,42.12-8.17,66.64,9.34l801.79,625.27,7.01,2798.03c0,386.82-44.45,723.44-174.18,1012.13-143.75,317.89-390.33,578.52-795.87,783.07-400.92,201-821.64,269.97-1173.47,532.94h0ZM3218.46,5541.35c319.1-233.78,698.91-298.04,1060.09-481.52,550.5-280.52,783.07-672.06,860.21-1185.11,22.19-148.46,31.53-308.55,31.53-478.02-1.17-880.06-3.5-1773.01-5.84-2653.07l-694.24-528.27c-22.19-15.18-36.24-12.84-60.76-8.17-855.54,153.09-1526.39,153.09-2383.1,0-24.54-4.67-37.41-7.01-60.76,8.17l-693.07,528.27c-2.34,880.06-4.67,1773.01-7.01,2653.07,0,169.47,9.34,329.56,31.55,478.02,77.13,513.05,310.88,904.59,860.19,1185.11,362.32,183.48,740.99,247.75,1061.21,481.52h0Z"/><path class="cls-3" d="M1886.1,6060.28c1.17-8.21-1.17-15.22-9.34-18.68-2.33-1.21-4.67-1.21-5.86-1.21h-4.67c-1.17,0-2.34,1.21-3.5,1.21,0,1.13-1.17,1.13-1.17,2.34-3.52,7.01,7.01,11.68,11.7,14.01,3.5,1.17,8.17,2.33,12.84,2.33h0ZM1876.76,6109.36c-10.53,3.5-22.23,3.5-32.73-1.17-4.67-2.34-9.34-5.84-14.01-10.51-3.52-3.5-5.86-8.17-8.19-14.05-2.34-4.67-2.34-10.51-2.34-16.35,1.17-5.84,2.34-10.51,4.67-16.35,4.69-9.34,9.36-18.72,16.37-26.9,5.84-8.17,14.01-15.22,22.21-22.23,14.03-11.68,33.88-21.02,52.61-12.84,16.35,8.18,18.68,28.06,17.51,44.41-1.17,23.39-8.17,47.92-18.7,68.97-28.04,61.93-70.12,111.01-121.54,115.68-31.57,3.54-66.64-10.51-104.02-50.25l-4.69-5.84c-36.22-51.42-9.34-29.19,15.22-11.67,8.17,7.01,16.35,12.84,21.02,15.18,45.58,19.89,132.07-16.35,156.63-56.09h0ZM5359.65,5685.09c-8.21,3.5-23.39,12.88-26.9,15.22-21.02,11.68-44.41,16.35-59.59-4.67-10.55-14.05-15.22-30.4-17.55-47.96-3.5-42.08,24.56-77.11,56.13-102.84,5.8-4.67,12.84-11.68,16.35-19.85,2.33-7.01,2.33-17.56,1.17-25.73l-1.17-5.84,10.51-3.5,3.5,2.34c5.84,5.84,12.88,9.34,22.23,8.18,12.85-2.34,44.41-29.23,53.75-38.58,8.17-7,28.07-26.9,30.4-37.4,2.33-8.17,1.13-18.68,0-26.86l-1.21-4.67,9.38-4.67,3.5,2.34c10.51,7.01,21.02,8.17,31.57,1.13,11.68-5.84,30.36-31.53,33.86-39.7-5.84-4.67-36.2-8.21-46.75-15.22-8.17-4.67-22.19-49.08-25.69-58.42l-4.67-14.05,14.01,5.88c23.35,9.34,57.26,24.52,73.6,43.25,15.22,15.18,32.73,38.57,36.24,60.76,4.67,31.57-31.53,78.32-60.76,85.32-8.17,1.17-15.18,0-23.39-2.33,0,44.41-66.6,104.04-100.5,107.51-8.17,1.21-15.18,0-22.19-3.46,3.5,32.69-17.55,49.04-43.25,68.93-4.71,2.34-26.9,19.89-28.06,24.56,2.33,0,7-1.21,8.17-1.21,15.18-4.67,38.57-11.68,54.96-11.68,12.85,0,24.52,7.01,31.53,17.55,17.51,23.35,8.17,54.92-3.5,78.28-12.84,29.23-32.69,54.96-58.42,73.64-22.23,15.18-46.75,25.73-73.64,23.39-26.9-2.34-46.75-17.55-61.93-37.41-19.89-29.23-31.57-66.64-39.74-100.54-4.67-22.19,1.17-29.19,8.17-25.69,8.17,3.5,12.84,22.22,16.35,32.73,3.54,15.18,9.34,30.36,17.56,42.08,10.51,15.18,24.52,23.35,43.24,24.52,22.19,0,43.24-10.51,60.76-23.39,17.51-11.68,32.73-25.69,46.75-42.04,2.34-2.33,11.68-12.88,15.22-19.89h0ZM5498.72,5551.86l15.18,50.25-52.59,5.84-15.18-49.08,52.58-7.01ZM5228.71,5479.42l12.88,49.04-53.79,2.38-10.51-50.29,51.42-1.13ZM4449.18,6017.03l-4.67,51.42-51.46-15.18,7.01-50.25,49.12,14.01ZM4582.42,6119.87c-3.5,16.35-15.18,32.74-29.23,39.74-26.86,12.85-52.59,23.39-80.65,33.9-19.85,9.34-71.27,30.4-92.33,29.19-14.01,0-28.06-1.13-38.57-11.68-14.01-12.84-25.69-37.36-33.86-54.92-12.88-26.9-26.9-56.09-43.24-81.82-4.71-8.17-12.88-19.85-16.39-29.23-3.5-8.17-3.5-16.35-2.33-25.69,1.17-9.34,5.84-21.02,9.34-29.23l4.67-14.01,7.05,12.84c14.01,23.39,25.69,49.08,38.57,73.64,7.01,14.01,14.01,28.02,22.19,42.08,5.84,12.85,14.01,31.53,26.86,39.74,7.05,4.67,15.22,5.84,24.56,5.84,28.07,1.17,161.3-51.42,177.65-73.65,4.67-7.01,7.01-17.51,8.17-25.69v-4.67l11.72-1.21,2.33,3.55c3.5,5.84,9.34,11.67,16.35,12.84,12.85,2.33,99.33-43.24,114.55-52.63,8.18-3.46,21.02-14.01,24.52-21.02,4.67-7,5.84-17.51,7-25.69v-4.67l11.72-3.54,2.33,4.67c3.5,4.67,8.17,9.38,15.18,11.72,14.01,3.5,70.14-33.9,81.82-44.41,10.51-10.55,14.01-23.39,10.51-38.57l-7.01-35.07c-3.5-17.52-3.5-39.74,14.01-50.25,12.84-8.17,28.06-3.5,39.74,3.5,19.89,10.51,36.24,25.69,47.91,45.58,7,10.51,11.68,23.35,11.68,36.24,0,11.68-4.67,22.19-15.18,29.23-11.67,7.01-36.2,10.51-52.58,11.68,2.33,12.85,0,26.9-7.01,38.57-3.5,9.34-11.72,17.52-19.85,23.35-19.89,16.35-45.58,30.4-68.97,43.24-14.05,8.21-29.23,4.67-40.91-3.5-3.5,16.39-15.18,32.74-28.06,40.91-23.35,14.01-94.66,53.75-118.06,57.26-12.84,2.38-25.69-1.17-36.2-8.18h0ZM4917.86,5865.07c-1.21,0-1.21-1.17-2.38-1.17-2.34-2.34-5.84-4.67-9.34-5.84-2.33,0-5.84-1.17-8.17-1.17s-4.67,1.17-7,2.34c-1.17,0-1.17,1.17-2.34,1.17,0,2.33-1.17,3.5-1.17,4.67v4.67h12.84c4.67-1.13,9.34-2.34,14.01-3.5,1.17,0,2.33,0,3.54-1.17h0ZM4218.95,6345.43l-8.21,51.46-50.25-17.55,9.34-51.42,49.12,17.52ZM3887.01,6269.49c-24.56-25.73-50.25-50.25-78.32-70.14-2.33,8.17-7.01,16.35-14.01,17.55-8.17,2.34-26.9-10.55-33.9-15.22-12.84-9.34-30.4-23.36-33.9-40.91-3.5-15.18,9.34-46.75,15.18-60.76l3.54-7.05,5.84,3.54c14.01,7.01,28.02,14.01,40.91,23.35,11.68,9.34,23.35,18.68,33.86,29.23,12.89,10.51,26.9,22.18,38.57,35.07,10.55,11.68,21.06,24.52,30.4,37.41,1.17-4.67,1.17-8.21,1.17-10.55,0-9.34-2.34-18.68-4.67-26.86-3.5-18.72-9.34-35.07-17.55-51.42-3.46-8.22-12.85-24.56-14.01-33.9-3.5-16.39,4.67-33.9,14.01-47.91l4.67-7.01,5.88,7.01c9.34,11.68,23.35,22.18,35.03,31.53l5.88,3.5-3.54,4.67c-2.34,5.88-7.01,14.05-7.01,19.89-1.13,9.34,2.34,23.36,4.67,32.74,3.54,17.52,9.38,43.25,9.38,61.93,0,15.18-4.67,33.9-8.17,49.08,11.68,18.72,24.52,40.91,28.02,60.8,3.5,14.01,3.5,30.36-5.84,42.04-11.68,12.88-35.07,19.89-52.59,23.39-18.72,4.67-31.57,2.33-40.91-2.34-17.52-11.68-18.72-37.41-23.4-56.09,11.72-3.5,19.89-4.67,25.73-7.01,16.39-5.88,18.72-14.05,35.07-45.58h0ZM3915.03,6302.19c0-1.17-2.33-3.5-5.84-8.17l-2.34-2.34c-2.33,8.18-7,14.05-10.51,18.72,2.33,0,4.67-1.21,7-1.21,4.67-1.12,7.01-2.33,9.34-2.33,1.21-1.13,2.33-2.33,2.33-4.67h0ZM3150.69,6250.77l-25.73,43.24-39.72-32.74,26.88-45.58,38.57,35.07ZM3229.01,6414.41c-1.17,31.56-11.7,58.42-33.9,80.65-22.21,21.02-49.08,30.36-80.65,29.23-21.04,0-40.91-5.88-57.26-21.06-15.2-14.05-22.23-32.73-22.23-52.59,1.17-16.39,2.34-32.74,8.19-47.91,5.84-18.72,18.7-38.57,28.04-56.13,4.67-7.01,21.04-31.53,22.2-10.51,0,8.17-1.17,14.01-3.5,21.02-5.84,16.39-17.53,29.23-18.7,51.46,0,11.68,4.67,21.02,15.2,29.23,11.7,9.34,26.88,12.85,42.08,12.85,16.37,1.17,32.71-2.33,47.91-9.38,9.36-4.67,22.21-11.68,23.37-24.52,0-10.51-10.51-26.9-16.35-36.24-7.03-9.34-19.89-28.06-19.89-39.74,1.17-16.35,12.86-38.57,21.06-52.58l5.84-9.34,5.84,9.34c24.52,37.4,33.9,81.82,32.74,126.23h0ZM2779.03,6325.58c-2.34,24.52-14.03,56.09-30.38,74.77-10.53,10.55-15.2,11.72-14.03-1.13,1.17-5.88,2.33-11.71,3.5-18.72,3.5-31.53,5.84-64.26,4.67-97,0-19.89-1.17-39.74-1.17-58.47,0-12.84-1.17-37.37,1.17-49.04,1.17-14.05,36.24-40.91,47.94-51.46l-1.17,16.39c-2.36,31.53-3.52,65.43-4.69,97,0,29.23-1.17,59.59-5.84,87.66h0ZM4194.39,6281.17c-11.68,12.85-82.98,32.7-98.17,31.57-14.05,0-28.06-2.34-38.57-12.88-12.88-14.01-24.56-38.58-31.57-57.26-11.68-26.9-24.56-56.09-39.74-81.82-4.67-8.17-12.84-21.02-16.35-30.36-2.34-8.21-2.34-17.56-1.17-25.73,2.34-9.38,7.01-21.06,10.51-29.23l4.67-14.01,7,12.85c12.85,24.56,24.56,50.25,36.24,75.98,5.84,14.01,12.84,28.06,19.85,43.24,7.05,11.68,14.05,31.53,25.73,39.74,7,4.67,16.39,5.84,24.52,7.01,10.55,0,86.49-19.89,83.03-30.4-2.33-5.84-26.9-15.18-31.57-29.19-3.5-10.55,1.17-52.62,2.33-63.13l1.17-15.18,9.34,11.68c17.51,18.73,38.57,46.75,46.75,70.14,8.17,21.02,11.68,45.58,5.84,66.6-3.5,12.84-9.34,23.39-19.85,30.4h0ZM3597.14,6407.4c-2.33,16.35-11.67,29.19-30.4,30.4-21.02,2.34-49.08-22.23-66.6-39.78-5.84,14.05-15.22,28.06-30.4,31.57-39.74,9.34-107.51,17.55-146.08,3.5-12.85-4.67-26.9-11.68-32.74-24.52-9.34-17.56-11.68-44.41-14.01-64.3-3.5-32.74-5.84-72.44-12.88-105.17-2.34-9.34-5.8-23.39-7.01-32.73,0-9.34,2.33-17.52,7.01-25.69,4.71-8.21,12.88-17.56,18.72-24.56l9.34-11.68,2.34,14.01c4.67,26.9,8.17,56.09,11.72,82.98,1.13,16.35,3.46,31.57,7.01,47.92,1.17,14.05,3.5,49.08,11.68,59.63,5.84,7,14.01,11.67,21.02,14.01,33.9,14.01,81.82,5.84,115.72-2.34,19.89-4.67,31.57-23.39,39.74-39.74,3.5-9.38,8.17-21.06,14.01-28.07,5.84-5.84,11.72-9.34,19.89-9.34,12.84-1.17,25.69,12.85,32.74,22.22,5.84,9.34,15.18,22.19,23.35,30.36,19.89,16.35,67.81,3.5,89.99,0,3.5-1.17,28.06-7.01,28.06-11.68-3.5-10.55-29.23-32.74-32.74-49.08-2.33-10.51,8.17-51.42,10.51-61.97l3.5-15.18,8.17,12.84c15.22,22.23,36.24,65.47,40.91,91.16,4.67,22.23,5.88,45.58-3.5,66.64-14.01,32.74-102.84,54.92-139.08,38.57h0ZM3524.71,6345.43c7,7.01,22.19,18.72,25.69,21.06v-7.01c-1.17-10.51-3.5-22.22-8.17-32.73-1.17-1.17-4.67-7.01-5.84-8.17-2.33,1.17-4.67,8.17-5.84,10.51-2.38,5.84-4.71,10.51-5.84,16.35h0ZM5384.17,5292.39l15.18,47.92-51.42,7.05-16.35-49.12,52.58-5.84ZM3715.2,6483.38l-16.39,44.37-45.58-26.86,18.72-47.92,40.91,25.73,17.52-44.45,44.41,26.9-17.51,47.92-42.08-25.69ZM4633.84,5936.38l-4.67,46.75-50.25-15.18,5.84-50.29,46.75,14.05,5.84-46.75,49.08,15.18-4.67,50.25-47.92-14.01ZM2687.85,6018.2l18.72,94.66c-5.84-1.17-16.37-14.01-18.72-11.68-5.84,4.67-5.84,12.84-7.01,24.52-1.17,9.38-1.17,19.89-2.34,28.06h0v4.67h0v1.17h0v1.17h0v1.17h0v1.17h0v1.17h0c0,10.51-2.34,46.75-2.34,56.09-1.17,24.56-1.17,52.63-5.84,77.15-3.5,22.23-10.51,43.24-26.9,59.59-11.67,12.88-26.86,19.89-44.41,17.55-16.35-2.34-33.88-2.34-47.92-9.34-9.34-5.84-16.35-12.88-22.19-22.23-5.86-10.51-10.53-19.85-16.39-29.23l-30.38,18.72c-40.89,25.73-154.27-14.01-196.35-33.9-12.85-5.84-23.38-12.84-29.21-26.86-3.5-9.34-4.69-21.06-3.5-32.74-10.53,8.17-22.21,15.18-32.72,17.52-23.39,5.88-78.31-10.51-102.88-29.23,0,2.38-1.17,3.54-1.17,4.71-4.67,14.01-12.84,28.06-23.35,38.53-9.36,8.21-19.89,12.89-31.57,8.21-16.37-5.84-23.37-22.22-26.9-37.41-4.67-17.51-3.5-33.9,1.19-49.08-11.7,0-24.54,3.51-29.21,15.18-4.69,12.85-7.03,30.4-10.53,43.25-8.19,52.62-15.2,107.55-52.61,134.4l2.34-12.85c3.52-24.56,7.03-47.91,10.53-72.47,5.86-33.91,14.03-72.48,25.71-105.17,7.01-17.55,16.37-37.4,31.57-50.25,14.01-12.88,33.9-19.89,52.59-24.56,4.67-1.17,12.86-2.33,17.53-4.67,3.5-2.34,8.2-7.01,10.53-10.51l7.01-7.01,4.67,8.18c4.67,11.68,10.51,23.35,17.53,35.07,22.21,36.2,53.77,45.58,94.66,54.92,25.71,7.01,37.41-11.68,44.41-35.07,7.03-23.35,12.86-50.25,18.7-74.81,4.67-19.85,9.34-44.37,15.18-64.26,8.19-25.73,52.61-61.93,52.61-53.75,0,16.35-15.2,73.64-19.87,91.16-8.17,35.07-18.68,71.31-24.54,105.17-3.5,19.89-7.01,47.92,9.36,61.97,26.88,23.35,112.18,42.03,148.42,49.08,7.01,1.17,14.03,1.17,19.87,0,2.36-21.06-9.34-18.72-21.04-32.73,16.37-39.74,36.24-60.8,82.98-50.25,16.37,3.51,29.23,11.68,39.74,25.69,9.34,12.89,11.68,28.07,8.17,43.24-4.67,16.39-15.18,28.06-29.21,33.9,2.34,2.34,4.67,3.5,8.19,3.5,12.84,3.5,25.69,5.84,39.72,7.04,3.52,1.13,11.7,2.34,15.2,0,3.5-2.33,5.84-10.55,7.01-15.22,3.5-25.69,4.67-88.82,4.67-115.72v-18.68h0v-92.33l50.25-45.58ZM1703.78,5879.13c-8.19,23.35-17.53,50.25-30.4,72.44-10.51,18.72-24.54,36.24-44.41,45.58-36.24,18.72-87.66-7.01-95.83-47.92-2.34-10.51-4.67-21.02-7.01-32.7l-33.9,8.17c-37.41,8.17-126.23-46.75-134.4-79.48-12.86,9.34-26.9,12.85-40.91,2.34-17.53-12.85-22.21-51.42-24.56-75.98-18.68,5.84-36.22,1.17-53.75-8.17-43.24-22.19-141.41-135.57-153.09-183.48-2.36-8.21-2.36-16.35,0-25.73-11.72,14.05-23.39,28.06-35.07,40.91-22.23,22.23-47.91,39.74-79.48,40.91-29.23,1.17-56.09-11.68-77.15-32.73-31.55-32.7-44.41-81.82-10.51-115.68,25.71-26.9,91.16-56.09,125.06-56.09,11.68-1.21,14.01,3.46,7.01,7.01-17.53,10.51-43.24,17.51-64.28,30.36-80.63,47.92,44.41,143.75,81.82,105.21,43.24-44.41,125.04-151.96,167.12-188.2,10.53-5.84,54.94-21.02,56.11-14.01,0,2.33-2.34,5.84-8.19,12.84-7.01,8.22-14.01,16.39-22.19,24.56-33.9,37.41-45.58,50.25-74.81,91.16-12.84,17.55-9.34,37.4-2.34,56.09,18.7,49.08,72.48,101.67,111.03,137.91,31.55,30.4,42.08,40.91,85.32,21.06,8.19-4.67,19.87-9.34,29.21-10.51,8.19-1.17,15.2,0,21.06,4.67,10.51,8.17,10.51,28.03,9.34,39.74-1.17,11.68-2.34,29.19-1.17,42.08,2.34,22.19,82.99,74.77,107.53,79.48,1.17-16.39-8.19-23.39-14.03-35.07,26.9-31.57,56.09-49.08,98.17-23.39,14.03,8.17,24.56,21.02,29.23,37.41,4.67,15.18,2.34,30.4-7.01,44.41-8.19,14.01-22.23,21.02-37.41,22.23-1.17,11.68,36.24,32.7,50.25,25.69,3.5-1.17,8.17-8.17,10.51-11.68,22.23-39.74,60.8-155.46,75.98-201.04l60.78-26.86-11.7,97c-4.67-3.5-10.51-18.72-14.01-17.52-5.84,2.34-8.17,9.34-14.03,21.02-5.84,12.84-28.04,63.1-33.88,75.98h0ZM1346.13,5749.39c1.19,10.51,4.69,30.4,5.86,32.73,1.17,0,3.5-3.54,3.5-4.71,7.01-8.17,14.01-18.68,16.35-29.19,0-2.33,1.17-9.34,1.17-10.55-2.34,0-9.34,3.54-11.68,3.54-4.67,3.46-10.51,5.8-15.2,8.17h0ZM1776.24,6003.02c-11.7,19.85-32.71,46.71-54.94,57.25-12.85,7.01-18.68,5.84-12.85-5.84,3.5-4.71,7.01-9.38,9.34-15.22,15.2-29.19,28.06-58.42,39.74-89.99,5.84-17.52,12.85-36.24,18.7-54.92,4.67-11.68,12.86-35.07,18.7-45.58,7.01-11.68,47.92-24.56,63.09-30.4l-7.01,14.05c-14.01,29.19-25.71,59.59-38.57,89.99-10.51,26.86-22.18,54.92-36.22,80.65h0ZM2891.23,6344.26c-1.17-8.17-5.84-14.01-15.18-15.18-1.19-1.17-3.52-1.17-5.86,0-1.17,0-3.5,1.17-4.67,1.17,0,1.17-1.17,2.33-2.36,3.5,0,0,0,1.17-1.17,1.17,0,7.01,11.7,9.34,16.39,9.34,4.67,1.17,9.34,0,12.84,0h0ZM2897.07,6393.35c-9.34,5.88-19.85,9.38-31.55,8.21-5.86,0-11.7-2.34-16.37-5.88-4.67-2.34-9.34-5.84-11.68-10.51-3.5-4.67-5.84-9.34-7.03-15.18-1.17-4.67-2.33-11.68-1.17-17.55,1.17-9.34,3.52-19.85,8.19-29.19,3.5-10.51,8.17-19.85,14.01-28.06,10.51-16.35,25.73-31.57,46.75-28.02,17.53,2.34,25.73,21.02,29.23,36.24,7.01,23.35,7.01,47.92,3.5,72.44-8.17,66.64-33.9,126.23-81.82,146.12-29.23,12.85-66.62,9.34-114.53-17.55l-5.86-3.5c-50.25-37.41-17.52-25.73,11.7-15.18,9.36,3.46,18.7,7,24.54,7,47.92,5.84,120.39-53.79,132.07-99.37h0ZM3911.53,6441.26c0,7.05-1.17,11.71-2.33,14.05-1.17,2.34-4.67,5.84-10.51,9.34l-51.42,29.23c1.17-7.04,3.5-12.85,4.67-15.18,2.34-3.54,7.01-7.04,12.84-11.71-10.51-2.34-17.51-8.17-18.68-15.18-1.17-5.84,2.34-16.35,10.51-30.4,7-11.68,14.05-17.52,21.06-18.68,8.17-2.38,14.01,1.17,15.18,9.34,1.17,4.67,0,10.51-2.34,19.85-9.34-4.67-16.39-5.84-19.85-4.67-5.88,1.17-10.55,4.67-14.05,11.68,16.39,9.38,28.06,12.89,36.24,10.55,8.17-1.17,15.18-3.5,18.68-8.21h0ZM4888.63,5614.95c4.67,5.88,5.84,9.38,7,11.72,0,3.5-2.33,7.01-4.67,12.85l-26.9,53.79c-3.5-7.04-4.67-11.71-4.67-16.39,0-3.5,2.34-8.17,4.67-15.18-10.51,2.33-18.68,2.33-23.36-2.34s-7.01-15.22-8.21-32.73c-1.13-11.72,1.21-21.06,7.01-26.9,5.88-5.84,11.72-5.84,17.55,0,3.5,2.34,5.84,8.17,9.34,17.55-10.51,2.33-17.51,4.67-19.85,7.01-3.5,3.5-5.84,9.34-4.67,17.52,18.68-1.17,30.4-4.67,36.2-10.51,5.88-5.84,9.38-11.68,10.55-16.39h0ZM4927.2,5632.51c24.52,25.69,47.92,58.42,71.27,85.32,18.72,22.19,39.74,45.58,54.92,68.97,15.22,22.19,24.56,51.42,29.23,78.27,3.5,18.72,0,23.39-9.34,10.55-5.84-7-9.34-12.88-14.01-19.89-18.72-25.69-38.58-51.42-60.8-75.94-14.01-14.05-28.02-28.06-40.91-42.12-8.17-9.34-22.19-22.19-29.19-32.7-10.51-15.22-5.84-56.13-1.17-72.48h0Z"/><polygon class="cls-6" points="5363.11 5832.38 5411.06 5839.39 5409.9 5792.64 5461.31 5800.81 5463.65 5851.06 5414.57 5844.06 5416.9 5890.8 5364.32 5883.8 5363.11 5832.38"/></svg>